<svg height="512" viewBox="0 0 512 512" width="512" xmlns="http://www.w3.org/2000/svg"><g id="Expressionless_Face" data-name="Expressionless Face"><g id="Flat"><path d="m256 512a256 256 0 0 1 -180.828-437.217 256 256 0 0 1 361.656 362.434 254.352 254.352 0 0 1 -180.828 74.783z" fill="#d1d1d1"/><path d="m436.828 74.783a258.146 258.146 0 0 0 -42.542-34.3 256.558 256.558 0 0 1 -53.458 284.739 256.2 256.2 0 0 1 -319.115 34.3 256.068 256.068 0 1 0 415.115-284.739z" fill="#bdbbbb"/>
<path d="m192 160a8 8 0 0 1 -8-8 24 24 0 0 0 -48 0 8 8 0 0 1 -16 0 40 40 0 0 1 80 0 8 8 0 0 1 -8 8z" fill="#424242"></path>
<path d="m384 160a8 8 0 0 1 -8-8 24 24 0 0 0 -48 0 8 8 0 0 1 -16 0 40 40 0 0 1 80 0 8 8 0 0 1 -8 8z" fill="#424242"></path>
<g fill="#ef5350"><path style="fill:#ef5350" d="m256 320c-40.234 0-78.14-12.249-106.735-34.489-29.19-22.703-45.265-53.072-45.265-85.511a8 8 0 0 1 16 0c0 57.346 61.009 104 136 104s136-46.654 136-104a8 8 0 0 1 16 0c0 32.439-16.075 62.808-45.265 85.511-28.595 22.24-66.501 34.489-106.735 34.489z"></path><path style="fill:#ef5350" d="m432 220c-30.085 0-44.352-22.111-47.692-33.8a8 8 0 1 1 15.384-4.4c.258.857 6.971 22.2 32.308 22.2a8 8 0 0 1 0 16z"></path><path d="m80 220a8 8 0 0 1 0-16c25.337 0 32.05-21.341 32.323-22.25a8 8 0 1 1 15.369 4.448c-3.34 11.691-17.607 33.802-47.692 33.802z"></path></g>
</g></g></svg>