<?xml version="1.0" encoding="utf-8"?>
<!-- Generator: Adobe Illustrator 19.0.0, SVG Export Plug-In . SVG Version: 6.00 Build 0)  -->
<svg version="1.1" id="Layer_1" xmlns="http://www.w3.org/2000/svg" xmlns:xlink="http://www.w3.org/1999/xlink" x="0px" y="0px"
	 viewBox="0 0 960 560" style="enable-background:new 0 0 960 560;" xml:space="preserve" fill="white">
<g id="XMLID_3_">
	<g id="XMLID_26_">
		<path id="XMLID_27_" class="st0" d="M779.7,413.2c-4.2-1.3-8-3.2-11.3-5.6c-4.6-3.5-8.9-8.8-12.9-15.8c-4-7-9.3-18.6-16-34.8
			l-89-215.1h-11.7l-74.9,193c-6.8,17.6-12.3,30.8-16.5,39.6c-4.2,8.8-8.4,16-12.8,21.6c-5.2,7-10.5,12-16,15.1
			c-4,2.3-11.7,3.9-18.3,4.7c1.2-2,2.4-4.3,3.5-6.9l4.1-10.4l99.7-252.8L484,146.4c-6.8,0-11.3-0.6-13.3-1.7c-2-1.2-3.6-4-4.5-8.5
			h-4.3l-15.7,69.7l-3.1-63.9h-277l-3.7,75.5l4.7,0.4c3.3-16.4,8-29.3,14.1-38.9c6.7-10.4,15.2-17.7,25.5-21.9c10.3-4.2,26-6.9,47-8
			c9.8-0.5,19-0.8,27.6-0.8V357c0,14.1-0.8,24.4-2.4,31.1c-1.6,6.7-4.5,12.2-8.7,16.6c-3.8,4-8.2,6.8-13,8.6
			c-4.8,1.8-11.2,2.9-19.1,3.3v4.7H369v-4.7c-7.8-0.4-14.1-1.5-18.9-3.3c-4.8-1.8-9.2-4.6-13-8.6c-4.2-4.4-7.1-9.9-8.7-16.7
			c-1.6-6.8-2.4-17.1-2.4-31V148.2c30.3,0,51.8,1.8,64.5,5.5c15,4.2,26.4,11.2,34.3,21c7.8,9.8,13.6,24.1,17.3,43.1l1.5-0.1l0,0.1
			h4.1l1-2.5c4.4-10.1,7.9-17.2,10.6-21.4c2.7-4.2,6.1-7.6,10.2-10.3c3-1.9,6.5-3.2,10.4-4c4-0.7,9.6-1.1,17-1.1h89.3L477.1,385.9
			l-4.3,8c-3.4,6.7-5.1,11.9-5.1,15.8c0,4.2,1.7,7.8,5.1,10.8c3.4,3,7.5,4.5,12.3,4.5c4.3,0,7.9-1.2,10.8-3.7h95.5v-4.7
			c-8.3-0.7-15.1-2.9-20.5-6.6c-3.8-2.7-6.9-6.3-9.1-10.6c-2.3-4.4-3.4-9.1-3.4-14.1c0-8.6,3.1-20.4,9.2-35.4l5.1-12.7l10.6-28.2
			h90.1l19.7,48.3l3.5,8.6c3.8,9.4,5.7,16.9,5.7,22.5c0,9.4-4.2,16.8-12.7,22.1c-4.8,3-13.2,5.1-25.4,6.1v4.7h134.5v-4.7
			C790.3,415.7,783.9,414.5,779.7,413.2z M586.7,300.5l40.5-106l43,106H586.7z"/>
	</g>
</g>
</svg>
